<svg width="29" height="36" viewBox="0 0 29 36" fill="none" xmlns="http://www.w3.org/2000/svg">
<path fill-rule="evenodd" clip-rule="evenodd" d="M17.2503 2.76209C17.2503 1.2642 16.0474 2.38419e-07 14.5026 0C12.9578 -2.38419e-07 11.755 1.2642 11.755 2.76209C11.755 3.94518 12.5053 4.98248 13.5819 5.36624V7.98275L13.5819 7.9855H6.08085C4.72488 7.9855 3.62565 9.08473 3.62565 10.4407V35.3857C3.62565 35.9684 4.36145 36.2232 4.7218 35.7653L9.1125 30.1861C9.13538 30.157 9.15513 30.1267 9.17188 30.0956H22.9205C24.2764 30.0956 25.3757 28.9964 25.3757 27.6404V10.4407C25.3757 9.08473 24.2764 7.9855 22.9205 7.9855H15.4233L15.4233 7.98275V5.36624C16.4999 4.98248 17.2503 3.94518 17.2503 2.76209ZM14.5026 3.68279C13.9588 3.68279 13.5675 3.24301 13.5675 2.76209C13.5675 2.28117 13.9588 1.8414 14.5026 1.8414C15.0464 1.8414 15.4378 2.28117 15.4378 2.76209C15.4377 3.24301 15.0464 3.68279 14.5026 3.68279ZM10.4212 17.1973C11.5057 17.1973 12.3848 16.3039 12.3848 15.2018C12.3848 14.0997 11.5057 13.2063 10.4212 13.2063C9.33679 13.2063 8.45768 14.0997 8.45768 15.2018C8.45768 16.3039 9.33679 17.1973 10.4212 17.1973ZM19.9382 23.0333V23.954C19.9382 24.858 19.0497 25.4885 18.1257 25.4885H17.8249V23.0333H19.9382ZM16.9186 23.0333V25.4885H15.1061V23.0333H16.9186ZM12.3874 25.4885H14.1999V23.0333H12.3874V25.4885ZM11.4811 23.0333V25.4885H10.8757C9.95164 25.4885 9.06315 24.858 9.06315 23.954V23.0333H11.4811ZM20.541 15.2018C20.541 16.3039 19.6619 17.1973 18.5775 17.1973C17.493 17.1973 16.6139 16.3039 16.6139 15.2018C16.6139 14.0997 17.493 13.2063 18.5775 13.2063C19.6619 13.2063 20.541 14.0997 20.541 15.2018Z" fill="url(#paint0_linear_2322_2057)"/>
<path d="M1.51042 22.4181L2.41667 22.4181L2.41667 15.3551H1.51042C0.620625 15.3551 1.86905e-07 16.2583 1.46218e-07 17.1977L0 20.5756C-4.06872e-08 21.5149 0.620625 22.4181 1.51042 22.4181Z" fill="url(#paint1_linear_2322_2057)"/>
<path d="M26.5846 22.4181L27.4909 22.4181C28.3807 22.4181 29.0013 21.5149 29.0013 20.5756V17.1977C29.0013 16.2583 28.3807 15.3551 27.4909 15.3551H26.5846V22.4181Z" fill="url(#paint2_linear_2322_2057)"/>
<defs>
<linearGradient id="paint0_linear_2322_2057" x1="21.472" y1="11.5317" x2="3.70572" y2="35.8565" gradientUnits="userSpaceOnUse">
<stop stop-color="#13C9DD"/>
<stop offset="1" stop-color="#0A30D2"/>
</linearGradient>
<linearGradient id="paint1_linear_2322_2057" x1="21.472" y1="11.5317" x2="3.70572" y2="35.8565" gradientUnits="userSpaceOnUse">
<stop stop-color="#13C9DD"/>
<stop offset="1" stop-color="#0A30D2"/>
</linearGradient>
<linearGradient id="paint2_linear_2322_2057" x1="21.472" y1="11.5317" x2="3.70572" y2="35.8565" gradientUnits="userSpaceOnUse">
<stop stop-color="#13C9DD"/>
<stop offset="1" stop-color="#0A30D2"/>
</linearGradient>
</defs>
</svg>
