<svg width="24" height="24" viewBox="0 0 24 24" fill="none" xmlns="http://www.w3.org/2000/svg">
<path fill-rule="evenodd" clip-rule="evenodd" d="M3 14.001C3 9.03298 7.03 5.00098 12 5.00098C16.97 5.00098 21 9.03298 21 14.001C21 15.054 20.67 16.381 20.071 17.421C19.464 18.475 18.738 18.991 18.019 19.001C17.535 18.977 17.179 18.768 16.515 18.381C16.371 18.297 16.213 18.205 16.037 18.105C15.087 17.565 13.87 17.001 12 17.001C10.13 17.001 8.913 17.564 7.963 18.105C7.787 18.205 7.629 18.297 7.485 18.381C6.821 18.768 6.465 18.977 5.981 19.001C5.261 18.991 4.536 18.475 3.929 17.421C3.33 16.381 3 15.054 3 14.001ZM12 3.00098C5.925 3.00098 1 7.92898 1 14.001C1 15.399 1.42 17.071 2.196 18.419C2.959 19.744 4.225 21.001 6 21.001H6.04C7.081 20.959 7.936 20.448 8.612 20.043C8.731 19.973 8.844 19.904 8.952 19.843C9.728 19.402 10.599 19.001 12 19.001C13.401 19.001 14.272 19.401 15.048 19.843C15.156 19.904 15.268 19.973 15.388 20.043C16.064 20.447 16.918 20.959 17.96 21L17.98 21.001H18C19.775 21.001 21.041 19.744 21.804 18.419C22.58 17.072 23 15.399 23 14.001C23 7.92898 18.075 3.00098 12 3.00098ZM16.95 10.465C17.0455 10.3727 17.1217 10.2624 17.1741 10.1404C17.2265 10.0184 17.2541 9.88716 17.2553 9.75438C17.2564 9.6216 17.2311 9.48992 17.1808 9.36702C17.1305 9.24413 17.0563 9.13247 16.9624 9.03858C16.8685 8.94469 16.7568 8.87044 16.634 8.82016C16.5111 8.76987 16.3794 8.74457 16.2466 8.74573C16.1138 8.74688 15.9826 8.77447 15.8606 8.82687C15.7386 8.87928 15.6282 8.95547 15.536 9.05098L12.518 12.069C12.0927 11.955 11.6417 11.9845 11.2349 12.153C10.8282 12.3214 10.4883 12.6194 10.2682 13.0007C10.048 13.382 9.95984 13.8253 10.0173 14.2618C10.0748 14.6983 10.2747 15.1037 10.586 15.415C10.8973 15.7263 11.3027 15.9262 11.7392 15.9837C12.1757 16.0411 12.619 15.9529 13.0003 15.7328C13.3816 15.5126 13.6795 15.1728 13.848 14.766C14.0165 14.3592 14.046 13.9082 13.932 13.483L16.95 10.465ZM5 15.001C5.26522 15.001 5.51957 14.8956 5.70711 14.7081C5.89464 14.5205 6 14.2662 6 14.001C6 13.7358 5.89464 13.4814 5.70711 13.2939C5.51957 13.1063 5.26522 13.001 5 13.001C4.73478 13.001 4.48043 13.1063 4.29289 13.2939C4.10536 13.4814 4 13.7358 4 14.001C4 14.2662 4.10536 14.5205 4.29289 14.7081C4.48043 14.8956 4.73478 15.001 5 15.001ZM20 14.001C20 14.2662 19.8946 14.5205 19.7071 14.7081C19.5196 14.8956 19.2652 15.001 19 15.001C18.7348 15.001 18.4804 14.8956 18.2929 14.7081C18.1054 14.5205 18 14.2662 18 14.001C18 13.7358 18.1054 13.4814 18.2929 13.2939C18.4804 13.1063 18.7348 13.001 19 13.001C19.2652 13.001 19.5196 13.1063 19.7071 13.2939C19.8946 13.4814 20 13.7358 20 14.001ZM12 8.00098C12.2652 8.00098 12.5196 7.89562 12.7071 7.70808C12.8946 7.52055 13 7.26619 13 7.00098C13 6.73576 12.8946 6.48141 12.7071 6.29387C12.5196 6.10633 12.2652 6.00098 12 6.00098C11.7348 6.00098 11.4804 6.10633 11.2929 6.29387C11.1054 6.48141 11 6.73576 11 7.00098C11 7.26619 11.1054 7.52055 11.2929 7.70808C11.4804 7.89562 11.7348 8.00098 12 8.00098Z" fill="#CACFDE"/>
</svg>
