<svg width="24" height="24" viewBox="0 0 24 24" fill="#CACFDE" xmlns="http://www.w3.org/2000/svg">
<path d="M7 4C7 3.44772 7.44772 3 8 3H16C16.5523 3 17 3.44772 17 4C17 4.55228 16.5523 5 16 5H8C7.44772 5 7 4.55228 7 4Z" fill="#CACFDE"/>
<path d="M4 8C4 7.44772 4.44772 7 5 7H19C19.5523 7 20 7.44772 20 8C20 8.55228 19.5523 9 19 9H5C4.44772 9 4 8.55228 4 8Z" fill="#CACFDE"/>
<path fill-rule="evenodd" clip-rule="evenodd" d="M2 19V12H9C9.26522 12 9.51957 12.1054 9.70711 12.2929C9.89464 12.4804 10 12.7348 10 13V13.1C10 14.15 10.85 15 11.9 15H12.1C12.6039 15 13.0872 14.7998 13.4435 14.4435C13.7998 14.0872 14 13.6039 14 13.1V13C14 12.7348 14.1054 12.4804 14.2929 12.2929C14.4804 12.1054 14.7348 12 15 12H22V19C22 19.7957 21.6839 20.5587 21.1213 21.1213C20.5587 21.6839 19.7956 22 19 22H5C4.20435 22 3.44129 21.6839 2.87868 21.1213C2.31607 20.5587 2 19.7957 2 19ZM20 14H15.896C15.693 14.8542 15.2079 15.615 14.5191 16.1594C13.8303 16.7038 12.978 16.9999 12.1 17H11.9C11.022 16.9999 10.1697 16.7038 9.48089 16.1594C8.79206 15.615 8.30696 14.8542 8.104 14H4V19C4 19.2652 4.10536 19.5196 4.29289 19.7071C4.48043 19.8946 4.73478 20 5 20H19C19.2652 20 19.5196 19.8946 19.7071 19.7071C19.8946 19.5196 20 19.2652 20 19V14Z" fill="#CACFDE"/>
</svg>
