<svg width="24" height="24" viewBox="0 0 24 24" fill="none" xmlns="http://www.w3.org/2000/svg">
<path d="M9.00001 11.9981H7.00001C6.73479 11.9981 6.48044 12.1035 6.2929 12.291C6.10537 12.4785 6.00001 12.7329 6.00001 12.9981C6.00001 13.2633 6.10537 13.5177 6.2929 13.7052C6.48044 13.8928 6.73479 13.9981 7.00001 13.9981H9.00001C9.26522 13.9981 9.51958 13.8928 9.70711 13.7052C9.89465 13.5177 10 13.2633 10 12.9981C10 12.7329 9.89465 12.4785 9.70711 12.291C9.51958 12.1035 9.26522 11.9981 9.00001 11.9981ZM8.00001 9.99812H12C12.2652 9.99812 12.5196 9.89276 12.7071 9.70522C12.8947 9.51769 13 9.26333 13 8.99812C13 8.7329 12.8947 8.47854 12.7071 8.29101C12.5196 8.10347 12.2652 7.99812 12 7.99812H8.00001C7.73479 7.99812 7.48044 8.10347 7.2929 8.29101C7.10537 8.47854 7.00001 8.7329 7.00001 8.99812C7.00001 9.26333 7.10537 9.51769 7.2929 9.70522C7.48044 9.89276 7.73479 9.99812 8.00001 9.99812ZM9.00001 15.9981H7.00001C6.73479 15.9981 6.48044 16.1035 6.2929 16.291C6.10537 16.4785 6.00001 16.7329 6.00001 16.9981C6.00001 17.2633 6.10537 17.5177 6.2929 17.7052C6.48044 17.8928 6.73479 17.9981 7.00001 17.9981H9.00001C9.26522 17.9981 9.51958 17.8928 9.70711 17.7052C9.89465 17.5177 10 17.2633 10 16.9981C10 16.7329 9.89465 16.4785 9.70711 16.291C9.51958 16.1035 9.26522 15.9981 9.00001 15.9981ZM21 11.9981H18V2.99812C18.0007 2.82191 17.9548 2.64864 17.867 2.49586C17.7792 2.34308 17.6526 2.21622 17.5 2.12812C17.348 2.04035 17.1755 1.99414 17 1.99414C16.8245 1.99414 16.652 2.04035 16.5 2.12812L13.5 3.84812L10.5 2.12812C10.348 2.04035 10.1755 1.99414 10 1.99414C9.82447 1.99414 9.65203 2.04035 9.50001 2.12812L6.50001 3.84812L3.50001 2.12812C3.34799 2.04035 3.17554 1.99414 3.00001 1.99414C2.82447 1.99414 2.65203 2.04035 2.50001 2.12812C2.3474 2.21622 2.22079 2.34308 2.13299 2.49586C2.04518 2.64864 1.99931 2.82191 2.00001 2.99812V18.9981C2.00001 19.7938 2.31608 20.5568 2.87869 21.1194C3.4413 21.682 4.20436 21.9981 5.00001 21.9981H19C19.7957 21.9981 20.5587 21.682 21.1213 21.1194C21.6839 20.5568 22 19.7938 22 18.9981V12.9981C22 12.7329 21.8947 12.4785 21.7071 12.291C21.5196 12.1035 21.2652 11.9981 21 11.9981ZM5.00001 19.9981C4.73479 19.9981 4.48044 19.8928 4.2929 19.7052C4.10536 19.5177 4.00001 19.2633 4.00001 18.9981V4.72812L6.00001 5.86811C6.15435 5.94873 6.32589 5.99083 6.50001 5.99083C6.67413 5.99083 6.84567 5.94873 7.00001 5.86811L10 4.14812L13 5.86811C13.1543 5.94873 13.3259 5.99083 13.5 5.99083C13.6741 5.99083 13.8457 5.94873 14 5.86811L16 4.72812V18.9981C16.0027 19.3393 16.0636 19.6774 16.18 19.9981H5.00001ZM20 18.9981C20 19.2633 19.8947 19.5177 19.7071 19.7052C19.5196 19.8928 19.2652 19.9981 19 19.9981C18.7348 19.9981 18.4804 19.8928 18.2929 19.7052C18.1054 19.5177 18 19.2633 18 18.9981V13.9981H20V18.9981ZM13.56 16.1681C13.5043 16.1303 13.4437 16.1 13.38 16.0781C13.3205 16.0477 13.2562 16.0274 13.19 16.0181C13.0294 15.9859 12.8633 15.9937 12.7063 16.0408C12.5494 16.0879 12.4064 16.1728 12.29 16.2881C12.1073 16.4798 12.0037 16.7333 12 16.9981C11.9984 17.1281 12.0222 17.2572 12.07 17.3781C12.1244 17.4996 12.1987 17.6112 12.29 17.7081C12.3872 17.7964 12.4988 17.8675 12.62 17.9181C12.7397 17.971 12.8691 17.9983 13 17.9983C13.1309 17.9983 13.2603 17.971 13.38 17.9181C13.5012 17.8675 13.6128 17.7964 13.71 17.7081C13.8027 17.6147 13.876 17.5039 13.9258 17.382C13.9755 17.2602 14.0008 17.1297 14 16.9981C13.9963 16.7333 13.8927 16.4798 13.71 16.2881C13.6625 16.2451 13.6124 16.205 13.56 16.1681ZM13.7 12.2881C13.5832 12.1744 13.4404 12.091 13.2841 12.045C13.1277 11.9991 12.9624 11.9921 12.8027 12.0247C12.643 12.0572 12.4937 12.1283 12.3677 12.2317C12.2418 12.3351 12.143 12.4678 12.08 12.6181C12.0178 12.7696 11.9937 12.9341 12.0099 13.0971C12.0261 13.26 12.0821 13.4166 12.1729 13.5528C12.2638 13.6891 12.3867 13.801 12.5309 13.8786C12.6751 13.9563 12.8362 13.9973 13 13.9981C13.2652 13.9981 13.5196 13.8928 13.7071 13.7052C13.8947 13.5177 14 13.2633 14 12.9981C13.9984 12.8674 13.9712 12.7383 13.92 12.6181C13.8718 12.4933 13.7967 12.3806 13.7 12.2881Z" fill="#CACFDE"/>
</svg>
