<svg width="114" height="36" viewBox="0 0 114 36" fill="none" xmlns="http://www.w3.org/2000/svg">
<path fill-rule="evenodd" clip-rule="evenodd" d="M17.2503 2.76209C17.2503 1.2642 16.0474 2.38419e-07 14.5026 0C12.9578 -2.38419e-07 11.755 1.2642 11.755 2.76209C11.755 3.94518 12.5053 4.98248 13.5819 5.36624V7.98275L13.5819 7.9855H6.08085C4.72488 7.9855 3.62565 9.08473 3.62565 10.4407V35.3857C3.62565 35.9684 4.36145 36.2232 4.7218 35.7653L9.1125 30.1861C9.13538 30.157 9.15513 30.1267 9.17188 30.0956H22.9205C24.2764 30.0956 25.3757 28.9964 25.3757 27.6404V10.4407C25.3757 9.08473 24.2764 7.9855 22.9205 7.9855H15.4233L15.4233 7.98275V5.36624C16.4999 4.98248 17.2503 3.94518 17.2503 2.76209ZM14.5026 3.68279C13.9588 3.68279 13.5675 3.24301 13.5675 2.76209C13.5675 2.28117 13.9588 1.8414 14.5026 1.8414C15.0464 1.8414 15.4378 2.28117 15.4378 2.76209C15.4377 3.24301 15.0464 3.68279 14.5026 3.68279ZM10.4212 17.1973C11.5057 17.1973 12.3848 16.3039 12.3848 15.2018C12.3848 14.0997 11.5057 13.2063 10.4212 13.2063C9.33679 13.2063 8.45768 14.0997 8.45768 15.2018C8.45768 16.3039 9.33679 17.1973 10.4212 17.1973ZM19.9382 23.0333V23.954C19.9382 24.858 19.0497 25.4885 18.1257 25.4885H17.8249V23.0333H19.9382ZM16.9186 23.0333V25.4885H15.1061V23.0333H16.9186ZM12.3874 25.4885H14.1999V23.0333H12.3874V25.4885ZM11.4811 23.0333V25.4885H10.8757C9.95164 25.4885 9.06315 24.858 9.06315 23.954V23.0333H11.4811ZM20.541 15.2018C20.541 16.3039 19.6619 17.1973 18.5775 17.1973C17.493 17.1973 16.6139 16.3039 16.6139 15.2018C16.6139 14.0997 17.493 13.2063 18.5775 13.2063C19.6619 13.2063 20.541 14.0997 20.541 15.2018Z" fill="url(#paint0_linear_2322_2056)"/>
<path d="M1.51042 22.4181L2.41667 22.4181L2.41667 15.3551H1.51042C0.620625 15.3551 1.86905e-07 16.2583 1.46218e-07 17.1977L0 20.5756C-4.06872e-08 21.5149 0.620625 22.4181 1.51042 22.4181Z" fill="url(#paint1_linear_2322_2056)"/>
<path d="M26.5846 22.4181L27.4909 22.4181C28.3807 22.4181 29.0013 21.5149 29.0013 20.5756V17.1977C29.0013 16.2583 28.3807 15.3551 27.4909 15.3551H26.5846V22.4181Z" fill="url(#paint2_linear_2322_2056)"/>
<path d="M45.7588 15.2333H40.2974V18.0695H45.6558V21.3048H40.2974V26.7039H37V11.998H45.7588V15.2333Z" fill="#041543"/>
<path d="M54.6728 16.1997H57.7642V26.7039H54.6728V25.7165C53.9927 26.5149 52.9829 26.998 51.6021 26.998C48.9023 26.998 46.6765 24.5821 46.6765 21.4518C46.6765 18.3216 48.9023 15.9056 51.6021 15.9056C52.9829 15.9056 53.9927 16.3888 54.6728 17.1871V16.1997ZM52.2203 24.0149C53.6424 24.0149 54.6728 23.0275 54.6728 21.4518C54.6728 19.8762 53.6424 18.8888 52.2203 18.8888C50.7983 18.8888 49.7679 19.8762 49.7679 21.4518C49.7679 23.0275 50.7983 24.0149 52.2203 24.0149Z" fill="#041543"/>
<path d="M64.5661 26.998C61.4335 26.998 59.1047 24.5821 59.1047 21.4518C59.1047 18.3216 61.4335 15.9056 64.5661 15.9056C66.5651 15.9056 68.3375 16.977 69.2237 18.5947L66.5239 20.1913C66.1736 19.456 65.4316 19.0149 64.5249 19.0149C63.1853 19.0149 62.196 20.0022 62.196 21.4518C62.196 22.9014 63.1853 23.8888 64.5249 23.8888C65.4316 23.8888 66.1942 23.4476 66.5239 22.7123L69.2237 24.288C68.3375 25.9266 66.5857 26.998 64.5661 26.998Z" fill="#041543"/>
<path d="M72.616 22.7123C73.0075 23.8048 73.9555 24.1829 75.089 24.1829C75.934 24.1829 76.6553 23.8468 77.0675 23.3846L79.5406 24.8342C78.5307 26.2628 77.0057 26.998 75.0478 26.998C71.5237 26.998 69.3391 24.5821 69.3391 21.4518C69.3391 18.3216 71.5649 15.9056 74.8211 15.9056C77.83 15.9056 80.0558 18.2796 80.0558 21.4518C80.0558 21.893 80.0146 22.3132 79.9321 22.7123H72.616ZM72.5541 20.3594H76.9851C76.6553 19.1409 75.7279 18.6997 74.8005 18.6997C73.6258 18.6997 72.8427 19.288 72.5541 20.3594Z" fill="#041543"/>
<path d="M92.7319 19.0779C94.0509 19.7291 94.8958 20.9686 94.8958 22.5443C94.8958 23.7207 94.4837 24.7081 93.6799 25.5064C92.8762 26.3048 91.8869 26.7039 90.7122 26.7039H84.4883V11.998H90.2588C91.3923 11.998 92.3403 12.3762 93.1235 13.1535C93.9066 13.9308 94.2982 14.8762 94.2982 16.0107C94.2982 17.3132 93.7829 18.3426 92.7319 19.0779ZM90.2588 13.8258H86.4049V18.3216H90.2588C91.4747 18.3216 92.4022 17.3342 92.4022 16.0737C92.4022 15.4644 92.1961 14.9392 91.7633 14.498C91.3511 14.0569 90.8565 13.8258 90.2588 13.8258ZM86.4049 24.8762H90.7122C92.0106 24.8762 92.9998 23.8258 92.9998 22.4812C92.9998 21.83 92.7731 21.2628 92.3197 20.8006C91.8869 20.3384 91.3511 20.1073 90.7122 20.1073H86.4049V24.8762Z" fill="#041543"/>
<path d="M105.327 25.3804C104.276 26.4518 102.978 26.977 101.473 26.977C99.969 26.977 98.6706 26.4518 97.6196 25.3804C96.5685 24.309 96.0533 23.0065 96.0533 21.4518C96.0533 19.8972 96.5685 18.5947 97.6196 17.5233C98.6706 16.4518 99.969 15.9266 101.473 15.9266C102.978 15.9266 104.276 16.4518 105.327 17.5233C106.378 18.5947 106.914 19.8972 106.914 21.4518C106.914 23.0065 106.378 24.309 105.327 25.3804ZM101.473 25.1913C102.504 25.1913 103.369 24.8342 104.07 24.1199C104.771 23.4056 105.121 22.5233 105.121 21.4518C105.121 20.3804 104.771 19.498 104.07 18.7838C103.369 18.0695 102.504 17.7123 101.473 17.7123C100.464 17.7123 99.598 18.0695 98.8973 18.7838C98.1966 19.498 97.8463 20.3804 97.8463 21.4518C97.8463 22.5233 98.1966 23.4056 98.8973 24.1199C99.598 24.8342 100.464 25.1913 101.473 25.1913Z" fill="#041543"/>
<path d="M114 16.1997V17.9644H111.259V23.6577C111.259 25.2754 112.166 25.1493 114 25.0653V26.7039C110.867 27.1241 109.466 26.2628 109.466 23.6577V17.9644H107.426V16.1997H109.466V13.8048L111.259 13.2586V16.1997H114Z" fill="#041543"/>
<defs>
<linearGradient id="paint0_linear_2322_2056" x1="21.472" y1="11.5317" x2="3.70572" y2="35.8565" gradientUnits="userSpaceOnUse">
<stop stop-color="#13C9DD"/>
<stop offset="1" stop-color="#0A30D2"/>
</linearGradient>
<linearGradient id="paint1_linear_2322_2056" x1="21.472" y1="11.5317" x2="3.70572" y2="35.8565" gradientUnits="userSpaceOnUse">
<stop stop-color="#13C9DD"/>
<stop offset="1" stop-color="#0A30D2"/>
</linearGradient>
<linearGradient id="paint2_linear_2322_2056" x1="21.472" y1="11.5317" x2="3.70572" y2="35.8565" gradientUnits="userSpaceOnUse">
<stop stop-color="#13C9DD"/>
<stop offset="1" stop-color="#0A30D2"/>
</linearGradient>
</defs>
</svg>
